<?xml version="1.0" encoding="iso-8859-1"?>
<!-- Generator: Adobe Illustrator 19.0.0, SVG Export Plug-In . SVG Version: 6.00 Build 0)  -->
<svg version="1.1" id="Capa_1" xmlns="http://www.w3.org/2000/svg" xmlns:xlink="http://www.w3.org/1999/xlink" x="0px" y="0px"
	 viewBox="0 0 512.003 512.003" style="enable-background:new 0 0 512.003 512.003;" xml:space="preserve">
<path style="fill:#E07F54;" d="M474.408,161.556v102.863c0,5.164-4.346,9.351-9.707,9.351H338.51c-5.361,0-9.707-4.187-9.707-9.351
	c0,5.164-4.346,9.351-9.707,9.351H192.904c-5.361,0-9.707-4.187-9.707-9.351c0,5.164-4.346,9.351-9.707,9.351H47.299
	c-5.361,0-9.707-4.187-9.707-9.351V161.556c0-15.493,13.038-28.053,29.121-28.053h87.363c16.083,0,29.121,12.56,29.121,28.053
	c0-15.493,13.038-28.053,29.121-28.053h87.363c16.083,0,29.121,12.56,29.121,28.053c0-15.493,13.038-28.053,29.121-28.053h87.363
	C461.37,133.502,474.408,146.062,474.408,161.556z"/>
<path style="fill:#D3754F;" d="M474.408,161.555v28.521v74.342c0,5.165-4.346,9.351-9.707,9.351h-30.092h-96.1
	c-5.361,0-9.707-4.187-9.707-9.351c0,5.165-4.346,9.351-9.707,9.351H192.904c-5.361,0-9.707-4.187-9.707-9.351
	c0,5.165-4.346,9.351-9.707,9.351H47.299c-5.361,0-9.707-4.187-9.707-9.351v-74.342c0,15.494,13.038,28.053,29.121,28.053h87.363
	c16.083,0,29.121-12.56,29.121-28.053c0,15.494,13.038,28.053,29.121,28.053h87.363c16.083,0,29.121-12.56,29.121-28.053
	c0,15.494,13.038,28.053,29.121,28.053h47.564c21.444,0,38.828-16.747,38.828-37.405v-19.17c0-15.493-13.038-28.053-29.121-28.053
	h30.092C461.37,133.502,474.408,146.062,474.408,161.555z"/>
<path style="fill:#924A36;" d="M123.984,343.903v29.924c0,2.583-2.173,4.676-4.854,4.676H70.596c-2.681,0-4.854-2.093-4.854-4.676
	v-29.924c0-2.582,2.173-4.676,4.854-4.676h48.535C121.811,339.227,123.984,341.32,123.984,343.903z M439.463,339.227h-48.535
	c-2.681,0-4.854,2.094-4.854,4.676v29.924c0,2.583,2.173,4.676,4.854,4.676h48.535c2.681,0,4.854-2.093,4.854-4.676v-29.924
	C444.316,341.32,442.143,339.227,439.463,339.227z"/>
<path style="fill:#B16F52;" d="M504.5,227.013v116.889c0,2.583-2.173,4.676-4.854,4.676h-29.121h-19.414H60.889H41.475H12.354
	c-2.681,0-4.854-2.093-4.854-4.676V227.013c0-15.493,13.038-28.053,29.121-28.053s29.121,12.56,29.121,28.053v46.756h380.516
	v-46.756c0-15.493,13.038-28.053,29.121-28.053C491.462,198.96,504.5,211.52,504.5,227.013z"/>
<path style="fill:#A5664B;" d="M504.5,227.612v83.561v32.73c0,2.582-2.173,4.676-4.854,4.676h-29.121h-1.941h-17.473H60.889H41.475
	H12.354c-2.681,0-4.854-2.094-4.854-4.676v-32.73c0,2.583,2.173,4.676,4.854,4.676h29.121h19.414h393.135
	c10.722,0,19.414-8.373,19.414-18.702v-70.133c0-9.991-5.426-18.756-13.59-23.726c4.817-2.932,10.582-4.549,16.758-4.303
	C492.306,199.608,504.5,212.474,504.5,227.612z"/>
<path style="fill:#E89A6A;" d="M474.408,264.417v9.351c0,10.329-8.692,18.702-19.414,18.702H348.217
	c-10.722,0-19.414-8.373-19.414-18.702c0,10.329-8.692,18.702-19.414,18.702H202.611c-10.722,0-19.414-8.373-19.414-18.702
	c0,10.329-8.692,18.702-19.414,18.702H57.006c-10.722,0-19.414-8.373-19.414-18.702v-9.351c0-10.329,8.692-18.702,19.414-18.702
	h106.777c10.722,0,19.414,8.374,19.414,18.702c0-10.329,8.692-18.702,19.414-18.702h106.777c10.722,0,19.414,8.374,19.414,18.702
	c0-10.329,8.692-18.702,19.414-18.702h106.777C465.716,245.716,474.408,254.089,474.408,264.417z"/>
<path style="fill:#F7A676;" d="M298.711,264.417v9.351c0,10.329-8.692,18.702-19.414,18.702h-76.686
	c-10.722,0-19.414-8.373-19.414-18.702v-9.351c0-10.329,8.692-18.702,19.414-18.702h76.686
	C290.019,245.716,298.711,254.089,298.711,264.417z M133.691,245.716H57.006c-10.722,0-19.414,8.374-19.414,18.702v9.351
	c0,10.329,8.692,18.702,19.414,18.702h76.686c10.722,0,19.414-8.373,19.414-18.702v-9.351
	C153.105,254.089,144.413,245.716,133.691,245.716z M424.902,245.716h-76.686c-10.722,0-19.414,8.374-19.414,18.702v9.351
	c0,10.329,8.692,18.702,19.414,18.702h76.686c10.722,0,19.414-8.373,19.414-18.702v-9.351
	C444.316,254.089,435.624,245.716,424.902,245.716z"/>
<path d="M481.908,192.037v-30.481c0-19.604-16.428-35.554-36.621-35.554h-87.363c-11.861,0-22.425,5.504-29.121,14.019
	c-6.697-8.515-17.26-14.019-29.121-14.019h-87.363c-11.861,0-22.424,5.504-29.121,14.019c-6.696-8.515-17.26-14.019-29.121-14.019
	H66.713c-20.193,0-36.621,15.949-36.621,35.554v30.481C13.005,195.037,0,209.573,0,227.014v116.888
	c0,6.714,5.542,12.176,12.354,12.176h45.889v17.748c0,6.714,5.542,12.176,12.354,12.176h48.535c6.812,0,12.354-5.462,12.354-12.176
	v-17.748h247.09v17.748c0,6.714,5.542,12.176,12.354,12.176h48.535c6.812,0,12.354-5.462,12.354-12.176v-17.748h1.722h46.108
	c6.812,0,12.354-5.462,12.354-12.176V227.014C512,209.573,498.995,195.037,481.908,192.037z M66.713,141.002h87.363
	c11.922,0,21.621,9.221,21.621,20.554v56.106c0,4.143,3.357,7.5,7.5,7.5s7.5-3.357,7.5-7.5v-56.106
	c0-11.333,9.699-20.554,21.621-20.554h87.363c11.922,0,21.621,9.221,21.621,20.554c0,0.006,0.001,0.013,0.001,0.02v56.087
	c0,4.143,3.357,7.5,7.5,7.5s7.5-3.357,7.5-7.5v-56.106c0-0.004,0-0.008,0-0.013c0.007-11.327,9.703-20.541,21.621-20.541h87.363
	c11.922,0,21.621,9.221,21.621,20.554v30.875c-16.121,3.722-28.15,17.81-28.15,34.583v11.202h-89.955
	c-7.875,0-14.982,3.333-20,8.655c-5.018-5.323-12.125-8.655-20-8.655H203.197c-7.731,0-14.722,3.212-19.724,8.365
	c-4.917-5.141-11.922-8.365-19.69-8.365h-29.364c-4.143,0-7.5,3.357-7.5,7.5s3.357,7.5,7.5,7.5h29.364
	c6.569,0,11.914,5.025,11.914,11.202v1.298v6.756v1.298c0,6.177-5.345,11.202-11.914,11.202H57.006
	c-6.569,0-11.914-5.025-11.914-11.202v-9.352c0-6.177,5.345-11.202,11.914-11.202H103.6c4.143,0,7.5-3.357,7.5-7.5
	s-3.357-7.5-7.5-7.5H73.242v-11.202c0-16.773-12.03-30.861-28.15-34.583v-30.875C45.092,150.223,54.791,141.002,66.713,141.002z
	 M438.758,341.078H124.004c-0.007,0-0.013-0.001-0.019-0.001s-0.013,0.001-0.019,0.001H73.242v-41.106h90.541
	c7.768,0,14.773-3.224,19.69-8.365c5.001,5.153,11.993,8.365,19.724,8.365h105.605c7.875,0,14.982-3.333,20-8.655
	c5.018,5.323,12.125,8.655,20,8.655h89.955L438.758,341.078L438.758,341.078z M321.303,272.471c0,6.893-5.607,12.5-12.5,12.5
	H203.197c-6.893,0-12.5-5.607-12.5-12.5v-6.756c0-6.893,5.607-12.5,12.5-12.5h105.605c6.893,0,12.5,5.607,12.5,12.5v6.756H321.303z
	 M348.803,284.971c-6.893,0-12.5-5.607-12.5-12.5v-6.756c0-6.893,5.607-12.5,12.5-12.5h105.605c6.893,0,12.5,5.607,12.5,12.5v6.756
	c0,6.893-5.607,12.5-12.5,12.5H348.803z M15,227.014c0-11.333,9.699-20.554,21.621-20.554s21.621,9.221,21.621,20.554v11.202h-1.236
	c-14.841,0-26.914,11.754-26.914,26.202v9.352c0,14.448,12.073,26.202,26.914,26.202h1.236v41.106H15V227.014z M116.484,371.002
	H73.242v-14.924h43.242C116.484,356.078,116.484,371.002,116.484,371.002z M393.574,371.002v-14.924h43.242v14.924H393.574z
	 M497,341.078h-43.242v-41.106h0.65c15.163,0,27.5-12.337,27.5-27.5v-6.756c0-15.163-12.337-27.5-27.5-27.5h-0.65v-11.202
	c0-11.333,9.699-20.554,21.621-20.554S497,215.681,497,227.014V341.078z"/>
<g>
</g>
<g>
</g>
<g>
</g>
<g>
</g>
<g>
</g>
<g>
</g>
<g>
</g>
<g>
</g>
<g>
</g>
<g>
</g>
<g>
</g>
<g>
</g>
<g>
</g>
<g>
</g>
<g>
</g>
</svg>
